<svg xmlns="http://www.w3.org/2000/svg" viewBox="0 0 85.84 97.43"><defs><style>.cls-1{fill:#cefa00;}</style></defs><g id="Layer_2" data-name="Layer 2"><g id="Layer_1-2" data-name="Layer 1"><path class="cls-1" d="M27,18.2l13.47-7.77a6,6,0,0,0,1.64,1.07A6.11,6.11,0,0,0,44.5,12h.29a6,6,0,0,0,5.66-5.29,5.32,5.32,0,0,0,0-.69,1.69,1.69,0,0,0,0-.23,5.86,5.86,0,0,0-.58-2.36A6,6,0,0,0,44.5,0L44,0a6,6,0,0,0-5.15,3.92A5.88,5.88,0,0,0,38.5,6a.86.86,0,0,0,0,.16L22.35,15.5V58.65L27,56ZM42.3,4a3,3,0,0,1,2.2-1,3,3,0,0,1,3,3v.06a1.84,1.84,0,0,1,0,.33,3,3,0,0,1-3,2.6,2.9,2.9,0,0,1-1.14-.23A3,3,0,0,1,41.5,6,3,3,0,0,1,42.3,4Z"/><path class="cls-1" d="M45.42,55.59H40.75v13L24.69,77.89,8.61,68.6V33.48a5.81,5.81,0,0,0,1.75-1.28,6,6,0,0,0,0-8.19A6,6,0,0,0,.45,25.83a6,6,0,0,0,0,4.54A6,6,0,0,0,4,33.73q0,18.8,0,37.6l20.73,12,20.75-12ZM3,28.1a3,3,0,0,1,2.68-3l.31,0a3,3,0,0,1,2.62,1.54,3,3,0,0,1,0,2.9A3,3,0,0,1,6,31.09a3,3,0,0,1-3-3Z"/><path class="cls-1" d="M59.15,79.24,45.83,86.92a5.92,5.92,0,0,0-3.92-1.47,5.49,5.49,0,0,0-.58,0A6,6,0,0,0,37,88h0A5.8,5.8,0,0,0,36,90.59a4.8,4.8,0,0,0-.07.85,2.36,2.36,0,0,0,0,.38,5.93,5.93,0,0,0,.67,2.41,6,6,0,0,0,5.31,3.2h.22a6,6,0,0,0,5.46-4.1,5.84,5.84,0,0,0,.31-1.88,1.62,1.62,0,0,0,0-.31L63.8,81.94V38.79l-4.65,2.68ZM44.34,93.18h0a2.94,2.94,0,0,1-2.42,1.25,3,3,0,0,1-3-2.91h0v-.08a3.31,3.31,0,0,1,.05-.55,3,3,0,0,1,2.95-2.44,2.84,2.84,0,0,1,1,.17,3,3,0,0,1,1.45,4.56Z"/><path class="cls-1" d="M85.7,67.92h0A5.89,5.89,0,0,0,84,64.84a5.75,5.75,0,0,0-1.75-1.16V26.11l-20.72-12-20.74,12V41.85h4.66v-13l16.06-9.28,16.08,9.28V63.66A6,6,0,0,0,74,67.72a5.86,5.86,0,0,0,0,3,6,6,0,0,0,5,4.46h0a6.33,6.33,0,0,0,.76,0,6,6,0,0,0,5.86-4.7,6.14,6.14,0,0,0,.14-1.29A6,6,0,0,0,85.7,67.92ZM82.2,71a3,3,0,1,1,.64-1.84A3,3,0,0,1,82.2,71Z"/></g></g></svg>